<svg xmlns="http://www.w3.org/2000/svg" width="42.208" height="42.209" viewBox="0 0 42.208 42.209">
  <g id="pencil" transform="translate(-28 -2)" opacity="0.7">
    <path id="Caminho_16" data-name="Caminho 16" d="M32.033,1.883a3.015,3.015,0,0,1,4.263,0l6.03,6.03a3.015,3.015,0,0,1,0,4.263L15.192,39.309a3.015,3.015,0,0,1-1.176.73L4.972,43.053A3.015,3.015,0,0,1,1.155,39.24L4.17,30.2a3.015,3.015,0,0,1,.73-1.179L32.033,1.883Zm2.131,2.131,6.03,6.03L13.06,37.177,4.016,40.192l3.015-9.044Z" transform="translate(27 1)" fill="#dc2600" fill-rule="evenodd"/>
    <path id="Caminho_17" data-name="Caminho 17" d="M30.574,12.818,23.036,5.28l2.134-2.134,7.537,7.537-2.131,2.134ZM3,23.81v1.507a1.507,1.507,0,0,0,1.507,1.507H6.015v1.507a1.507,1.507,0,0,0,1.507,1.507H9.03v1.507a1.507,1.507,0,0,0,1.507,1.507h1.507V28.332a1.507,1.507,0,0,0-1.507-1.507H9.03V25.317A1.507,1.507,0,0,0,7.522,23.81Z" transform="translate(31.031 5.323)" fill="#dc2600" fill-rule="evenodd"/>
  </g>
</svg>
