<?xml version="1.0" encoding="UTF-8"?>
<svg width="276" height="399.57" version="1.1" viewBox="0 0 276 399.57" xmlns="http://www.w3.org/2000/svg" xmlns:cc="http://creativecommons.org/ns#" xmlns:dc="http://purl.org/dc/elements/1.1/" xmlns:rdf="http://www.w3.org/1999/02/22-rdf-syntax-ns#">
 <metadata>
  <rdf:RDF>
   <cc:Work rdf:about="">
    <dc:format>image/svg+xml</dc:format>
    <dc:type rdf:resource="http://purl.org/dc/dcmitype/StillImage"/>
    <dc:title/>
   </cc:Work>
  </rdf:RDF>
 </metadata>
 <g transform="translate(0 72.574)" fill="#fff">
  <path d="m198.46 325.5h-120.92c-10.274 0-20.239-1.924-29.619-5.7186-4.5069-1.8232-8.8536-4.0799-12.92-6.7071-4.0263-2.6018-7.8123-5.5894-11.253-8.8801-3.4393-3.2896-6.5614-6.9088-9.2797-10.757-2.7432-3.8837-5.0991-8.0351-7.0023-12.339-3.9582-8.9509-5.9652-18.459-5.9652-28.261v-187.17c0-9.8016 2.007-19.31 5.9652-28.261 1.9032-4.3037 4.2591-8.4551 7.0023-12.339 2.7184-3.8485 5.8405-7.4678 9.2797-10.757 3.4405-3.2906 7.2264-6.2783 11.253-8.88 4.0659-2.6273 8.4126-4.8839 12.92-6.7071 9.3797-3.7946 19.345-5.7186 29.619-5.7186h2.0218l-0.58625-1.9349-17.308-57.124 48.252 57.111 0.43995 0.5207 88.079 1.4272 0.012146 1.9979e-4h0.012161c10.274 0 20.239 1.924 29.619 5.7186 4.5069 1.8232 8.8537 4.0798 12.919 6.7071 4.0264 2.6017 7.8123 5.5894 11.253 8.88 3.4393 3.2895 6.5614 6.9088 9.2798 10.757 2.7432 3.8837 5.0991 8.0351 7.0023 12.339 3.9582 8.9509 5.9652 18.459 5.9652 28.261v187.17c0 9.8016-2.007 19.31-5.9652 28.261-1.9032 4.3038-4.2591 8.4552-7.0023 12.339-2.7184 3.8485-5.8405 7.4677-9.2798 10.757-3.4404 3.2906-7.2264 6.2783-11.253 8.8801-4.0658 2.6272-8.4126 4.8839-12.919 6.7071-9.3797 3.7946-19.345 5.7186-29.619 5.7186z" stroke-width=".7"/>
  <path d="m65.208-59.542 15.202 50.173 1.1725 3.8699h-4.0436c-10.08 0-19.856 1.8872-29.056 5.6091-4.4193 1.7878-8.6814 4.0005-12.668 6.5765-3.9469 2.5504-7.658 5.4789-11.03 8.7042-3.3697 3.2231-6.4285 6.7688-9.0913 10.539-2.6861 3.8027-4.9926 7.8671-6.8557 12.08-3.8732 8.7585-5.8371 18.063-5.8371 27.654v187.17c0 9.5914 1.9638 18.896 5.8371 27.654 1.863 4.2131 4.1696 8.2774 6.8557 12.08 2.6628 3.7699 5.7216 7.3156 9.0913 10.539 3.3721 3.2252 7.0832 6.1538 11.03 8.7041 3.9865 2.576 8.2486 4.7886 12.668 6.5765 9.2002 3.722 18.976 5.6091 29.056 5.6091h120.92c10.08 0 19.856-1.8872 29.056-5.6091 4.4193-1.7878 8.6814-4.0005 12.668-6.5765 3.9469-2.5504 7.658-5.4789 11.03-8.7041 3.3697-3.2231 6.4285-6.7688 9.0913-10.539 2.6861-3.8027 4.9926-7.8671 6.8557-12.08 3.8732-8.7585 5.8371-18.063 5.8371-27.654v-187.17c-0.68595-15.265-4.6355-28.236-12.693-39.734-2.6628-3.7699-5.7216-7.3156-9.0913-10.539-3.3721-3.2253-7.0832-6.1538-11.03-8.7042-3.9865-2.576-8.2486-4.7886-12.668-6.5765-9.2002-3.7219-18.976-5.6091-29.056-5.6091h-0.0243l-0.0243-3.662e-4 -88.761-1.4383-44.444-52.604m-7.0832-13.032 52.939 62.659 87.398 1.4162c42.823 0 77.538 33.204 77.538 74.163v187.17c0 40.959-34.715 74.163-77.538 74.163h-120.92c-42.823 0-77.538-33.204-77.538-74.163v-187.17c0-40.959 34.715-74.163 77.538-74.163z" fill="#1d1d1d"/>
 </g>
</svg>
