<svg xmlns="http://www.w3.org/2000/svg" width="455.706" height="266.404" viewBox="0 0 455.706 266.404"><g transform="translate(45.119 43.157)" fill="#fff"><path d="M 225.1278839111328 217.7570953369141 C 223.3302001953125 214.00439453125 220.6777801513672 208.5536193847656 217.898193359375 203.1423645019531 C 214.9857177734375 197.4724273681641 212.5021820068359 192.9483032226563 210.5165405273438 189.6957244873047 C 207.0513000488281 184.0194244384766 205.5908355712891 182.9088897705078 204.2391815185547 182.9088897705078 C 202.1652526855469 182.9088897705078 199.5957794189453 184.6181945800781 195.6475372314453 188.6243133544922 C 192.4915466308594 191.82666015625 188.8365478515625 196.1401824951172 185.3018951416016 200.3117218017578 C 181.7792510986328 204.4690704345703 178.1365966796875 208.7680053710938 175.0283660888672 211.9186553955078 C 170.6886596679688 216.3175964355469 169.0018920898438 216.792724609375 168.4781341552734 216.7927703857422 C 168.4654846191406 216.7927703857422 168.4536590576172 216.7924194335938 168.44189453125 216.7917785644531 C 167.4282989501953 216.7336578369141 166.5371246337891 216.2923583984375 165.7173614501953 215.4426574707031 C 164.8889007568359 214.5838928222656 164.1139526367188 213.2807769775391 163.4140167236328 211.5694885253906 C 162.0121307373047 208.1419525146484 161.0472412109375 203.4473724365234 160.1141815185547 198.9073638916016 C 159.1844177246094 194.3834838867188 158.2230072021484 189.7056579589844 156.7968292236328 186.0758361816406 C 155.0390167236328 181.6017761230469 152.7213134765625 179.19677734375 149.7112426757813 178.7233123779297 C 149.4454803466797 178.6814880371094 149.1616516113281 178.6603088378906 148.8677215576172 178.6603088378906 C 143.9627227783203 178.6603088378906 134.5264892578125 184.8931884765625 124.536247253418 191.4920654296875 C 119.8155975341797 194.6101837158203 114.9342498779297 197.8344879150391 110.7819519042969 200.2032470703125 C 106.3693084716797 202.7205963134766 103.2395401000977 203.9970703125 101.4796600341797 203.9972534179688 C 101.2751846313477 203.9972534179688 101.0957183837891 203.9788970947266 100.9462509155273 203.9426574707031 C 100.6053619384766 203.8599548339844 100.2198333740234 203.6642456054688 99.94448089599609 202.8391876220703 C 99.66695404052734 202.0077209472656 99.58401489257813 200.7709503173828 99.69783782958984 199.1631927490234 C 99.93030548095703 195.8802490234375 100.9547729492188 191.4905395507813 101.9455413818359 187.245361328125 C 102.9520111083984 182.9328308105469 103.9927749633789 178.4735412597656 104.2687149047852 174.9351959228516 C 104.4011306762695 173.2367248535156 104.8041915893555 168.0681304931641 101.0832443237305 166.7803649902344 C 100.4684219360352 166.5676574707031 99.71207427978516 166.4642486572266 98.77083587646484 166.4642486572266 C 93.74854278564453 166.4642486572266 83.57295227050781 169.4949493408203 72.79989624023438 172.7035980224609 C 62.29277801513672 175.8330688476563 51.42795181274414 179.0690155029297 46.44289398193359 179.0697174072266 C 45.5335693359375 179.06982421875 45.07115936279297 178.9586486816406 44.85184097290039 178.8747863769531 C 44.87192535400391 178.7008514404297 44.96353149414063 178.3073883056641 45.3480110168457 177.5952453613281 C 45.77889251708984 176.7970733642578 46.47683715820313 175.7884826660156 47.42242431640625 174.5974884033203 C 49.27071762084961 172.2695465087891 51.88307189941406 169.4677124023438 54.40936660766602 166.7581329345703 C 61.29601287841797 159.3719482421875 65.49513244628906 154.6858367919922 65.06819152832031 151.5509490966797 C 64.94677734375 150.6591949462891 64.47319030761719 149.93701171875 63.6987190246582 149.4624786376953 C 62.83889389038086 148.9358367919922 61.65671920776367 148.6798400878906 60.08459854125977 148.6798400878906 C 55.34453964233398 148.6798400878906 47.39430618286133 150.9834289550781 38.9773063659668 153.4223022460938 C 31.06242370605469 155.7157135009766 22.87812995910645 158.0871887207031 18.48342323303223 158.0876007080078 C 17.33526992797852 158.0876922607422 16.75663185119629 157.9230499267578 16.47936820983887 157.7936706542969 C 16.57577705383301 157.3583526611328 17.05530738830566 156.1121215820313 19.35807037353516 153.1651306152344 C 21.31889343261719 150.6557769775391 24.03354072570801 147.6167144775391 26.65871810913086 144.6776580810547 C 29.64207077026367 141.3376617431641 32.72701263427734 137.8839569091797 34.8382453918457 135.0662536621094 C 37.0048942565918 132.1746673583984 38.79212951660156 129.2400665283203 37.2132453918457 127.3630142211914 C 34.25101089477539 123.8425445556641 31.76289367675781 120.2193069458008 29.60654067993164 116.2860717773438 C 29.09012985229492 115.3447189331055 28.19289398193359 115.0711288452148 23.24677658081055 115.0711288452148 C 18.91730690002441 115.0711288452148 12.47118854522705 115.3178329467773 5.646541595458984 115.5790710449219 C -1.408458590507507 115.8490753173828 -8.703694343566895 116.1282501220703 -13.74781131744385 116.1283645629883 C -15.39286804199219 116.1284103393555 -16.58109855651855 116.0977478027344 -17.4385871887207 116.0548553466797 C -17.37617492675781 116.0220336914063 -17.31142425537109 115.9884643554688 -17.24422264099121 115.9541320800781 C -16.16622352600098 115.4034271240234 -14.71828174591064 114.7835388183594 -12.81757640838623 114.0591278076172 C -9.218281745910645 112.6873626708984 -4.685752868652344 111.2028350830078 0.11289431899786 109.6311340332031 C 17.53507041931152 103.9248962402344 24.07771873474121 101.4481887817383 23.64642333984375 98.05089569091797 C 23.43254089355469 96.37677764892578 23.31483459472656 94.41742706298828 23.31483459472656 92.53260040283203 C 23.31483459472656 91.51542663574219 22.4291877746582 91.03907012939453 22.05101203918457 90.83571624755859 C 21.7013053894043 90.64759826660156 21.21665954589844 90.42583465576172 20.56936454772949 90.15772247314453 C 19.4498348236084 89.69401550292969 17.84436416625977 89.09189605712891 15.66124725341797 88.31695556640625 C 11.62642383575439 86.88471984863281 6.29430627822876 85.10107421875 0.6491296291351318 83.21271514892578 C -5.088047027587891 81.29354095458984 -11.02051734924316 79.30901336669922 -15.6895170211792 77.65554046630859 C -18.07253646850586 76.81154632568359 -19.92278671264648 76.12654113769531 -21.33410263061523 75.56563568115234 C -20.9089183807373 75.54936218261719 -20.42179107666016 75.53977966308594 -19.86416435241699 75.53977966308594 C -15.39340019226074 75.53977966308594 -8.729282379150391 76.11483764648438 -1.673929214477539 76.72371673583984 C 5.587658882141113 77.35030364990234 13.0964241027832 77.99830627441406 18.32360076904297 77.99830627441406 C 23.63901138305664 77.99830627441406 25.84683609008789 77.37877655029297 26.46977615356445 75.71253967285156 C 27.14348220825195 73.90924835205078 25.48513031005859 72.37189483642578 19.37189483642578 69.13242340087891 C 15.2361888885498 66.94083404541016 9.737188339233398 64.35695648193359 3.915364980697632 61.62136459350586 C -1.528576254844666 59.0633659362793 -7.157811641693115 56.41824722290039 -11.50281143188477 54.15336608886719 C -13.81781196594238 52.94672012329102 -15.57181167602539 51.95254135131836 -16.86504745483398 51.11418914794922 C -17.44535636901855 50.73799896240234 -17.87371253967285 50.43052673339844 -18.18930053710938 50.1839599609375 C -17.77283668518066 50.14659881591797 -17.2175235748291 50.11977767944336 -16.48157691955566 50.11977767944336 C -11.36639976501465 50.11977767944336 -1.547988057136536 51.41548538208008 7.947188377380371 52.66854095458984 C 18.16483497619629 54.01689529418945 28.73036575317383 55.41119003295898 34.74954223632813 55.41119003295898 C 37.99654006958008 55.41119003295898 39.67359924316406 55.03630828857422 40.53807067871094 54.11713027954102 C 41.14649963378906 53.4700927734375 41.61822128295898 52.95079040527344 41.94706726074219 52.56613922119141 C 42.48516464233398 52.31748962402344 43.354736328125 51.77610778808594 45.01442337036133 50.60213088989258 C 45.30483627319336 50.3967170715332 45.78236389160156 49.91301345825195 45.71830749511719 48.98112869262695 C 45.5786018371582 46.94960021972656 42.34783554077148 41.3720703125 38.36312866210938 36.28324890136719 C 34.43800735473633 31.27056884765625 28.00958061218262 24.38843727111816 19.67166900634766 20.0599193572998 C 4.868946075439453 11.87280559539795 -13.01933574676514 3.930651664733887 -26.08157539367676 -1.868692994117737 C -31.00981140136719 -4.056751728057861 -35.26598739624023 -5.946398735046387 -38.4317512512207 -7.437633991241455 C -39.94076538085938 -8.14848804473877 -41.03488922119141 -8.692453384399414 -41.82839584350586 -9.107836723327637 C -40.98052597045898 -9.277412414550781 -39.92990112304688 -9.449341773986816 -38.66457748413086 -9.608340263366699 C -36.2418098449707 -9.912752151489258 -32.14998626708984 -10.27563381195068 -26.4149284362793 -10.27563381195068 C -18.46251678466797 -10.27563381195068 -9.935811996459961 -9.598457336425781 -1.071635127067566 -8.262810707092285 L -1.042399764060974 -8.25839900970459 L -1.013046860694885 -8.255105018615723 C -0.1538703888654709 -8.160104751586914 0.7377766966819763 -8.062339782714844 1.659011960029602 -7.961339950561523 C 9.90654182434082 -7.056987285614014 20.17089462280273 -5.93145751953125 30.95430564880371 -4.208869457244873 C 43.6130485534668 -2.186718940734863 53.87437438964844 0.1601281762123108 62.31925582885742 2.964895963668823 C 63.30986022949219 3.495886087417603 70.57387542724609 7.383063793182373 78.07412719726563 11.22336578369141 C 94.61777496337891 19.69407081604004 96.14225006103516 19.69407081604004 96.87483215332031 19.69407081604004 C 97.11724853515625 19.69407081604004 97.33565521240234 19.65701293945313 97.5426025390625 19.58089447021484 C 101.4625396728516 18.13830757141113 101.2988357543945 12.56413078308105 100.8347778320313 8.496777534484863 C 100.2583084106445 3.444836378097534 98.67607116699219 -2.900457620620728 97.14595031738281 -9.036869049072266 C 95.94059753417969 -13.87086963653564 94.80207061767578 -18.43681144714355 94.14830780029297 -22.30745697021484 C 93.80495452880859 -24.34039878845215 93.630126953125 -25.97763442993164 93.61377716064453 -27.31287002563477 C 93.60682678222656 -27.88203620910645 93.63032531738281 -28.3556022644043 93.67237854003906 -28.74908065795898 C 95.53880310058594 -27.85501289367676 99.12230682373047 -25.88883018493652 104.674186706543 -21.45492744445801 C 113.6086578369141 -14.31969261169434 124.01171875 -3.74216365814209 135.5944213867188 9.983718872070313 L 136.1493072509766 10.64136600494385 L 136.9971313476563 10.49430751800537 C 138.8788909912109 10.16789531707764 140.6446533203125 8.247718811035156 142.9015960693359 4.073659896850586 C 144.6637725830078 0.8146011829376221 146.4650726318359 -3.332810640335083 148.3721313476563 -7.723692893981934 C 150.3431854248047 -12.26192855834961 152.3813629150391 -16.95475196838379 154.33154296875 -20.47681045532227 C 155.3357238769531 -22.2903995513916 156.2596588134766 -23.68439865112305 157.0776519775391 -24.61992835998535 C 158.0911254882813 -25.77910423278809 158.6942443847656 -25.95981025695801 158.9064788818359 -25.98369216918945 C 158.9575958251953 -25.98945808410645 159.0135955810547 -25.99234008789063 159.0730133056641 -25.99234008789063 C 159.8091888427734 -25.99234008789063 161.3518371582031 -25.57145690917969 164.5205993652344 -23.56639862060547 C 167.0005340576172 -21.99722290039063 169.7831268310547 -19.92157554626465 172.7290649414063 -17.7239875793457 C 179.2668914794922 -12.84710502624512 185.4421234130859 -8.240633964538574 189.4701232910156 -8.240104675292969 C 189.5706634521484 -8.240104675292969 189.6713714599609 -8.24286937713623 189.7693634033203 -8.248457908630371 C 191.9523620605469 -8.371928215026855 192.9600677490234 -11.23492813110352 193.7238311767578 -14.31039905548096 C 194.4650726318359 -17.29516410827637 195.0856018066406 -21.15322303771973 195.7425384521484 -25.23786926269531 C 196.3768310546875 -29.18181037902832 197.03271484375 -33.26004409790039 197.7991943359375 -36.43257522583008 C 198.1939544677734 -38.06675338745117 198.59619140625 -39.36122131347656 198.9947204589844 -40.28004455566406 C 199.2364654541016 -40.83753967285156 199.4426727294922 -41.17919921875 199.5944519042969 -41.38536834716797 C 200.1245574951172 -40.82730484008789 201.1756591796875 -39.59236145019531 203.2440185546875 -36.8629264831543 C 205.3536529541016 -34.07904434204102 207.9138336181641 -30.55375099182129 210.6243591308594 -26.82145690917969 C 213.7950744628906 -22.45557594299316 217.0736541748047 -17.9410457611084 219.7013092041016 -14.52869319915771 C 224.3054809570313 -8.549574851989746 225.1204223632813 -8.24604606628418 226.0688323974609 -8.24604606628418 C 227.1638946533203 -8.24604606628418 227.76513671875 -9.183692932128906 228.4949493408203 -10.50828075408936 C 229.0284271240234 -11.47657489776611 229.6965942382813 -12.8312816619873 230.4702453613281 -14.39992809295654 C 232.3763122558594 -18.26451683044434 234.9867248535156 -23.55728149414063 237.9267730712891 -27.84886932373047 C 239.4914855957031 -30.1329288482666 240.9931945800781 -31.89686965942383 242.3900756835938 -33.09175109863281 C 243.4708709716797 -34.01626586914063 244.4902038574219 -34.60477447509766 245.4329833984375 -34.85025405883789 C 245.7612915039063 -33.80218505859375 246.3708648681641 -32.24953842163086 247.3904876708984 -29.84839820861816 C 248.6719512939453 -26.83069229125977 250.5184173583984 -22.71045684814453 252.8786010742188 -17.60216331481934 C 256.8910827636719 -8.917810440063477 261.0598449707031 -0.2583988308906555 261.1014709472656 -0.1719870716333389 L 261.6944885253906 1.059307098388672 L 262.9754943847656 0.5831305980682373 C 263.2580261230469 0.4781093001365662 287.6675415039063 -8.593214988708496 295.9430236816406 -11.54753017425537 C 295.2454528808594 -7.814437389373779 294.3681640625 -1.370904922485352 294.1123657226563 4.894659996032715 C 293.9114379882813 9.817601203918457 294.1142578125 13.92018985748291 294.7151794433594 17.0884838104248 C 295.5285949707031 21.37689590454102 297.0504150390625 23.96024894714355 299.3675537109375 24.98601341247559 C 300.4047241210938 25.44513130187988 301.6312561035156 25.67795372009277 303.0132446289063 25.67795372009277 C 308.7123107910156 25.67795372009277 316.7104797363281 21.81424903869629 325.1783142089844 17.72371864318848 C 333.4073181152344 13.74848365783691 341.9164733886719 9.637953758239746 347.5355529785156 9.637953758239746 C 348.4602661132813 9.637953758239746 349.2798156738281 9.753594398498535 349.9838256835938 9.982647895812988 C 349.9035339355469 10.13494396209717 349.7950134277344 10.32568454742432 349.6484375 10.56218910217285 C 349.2493591308594 11.20613098144531 348.6988220214844 11.9870719909668 348.0614318847656 12.89130687713623 C 344.3460693359375 18.16201210021973 337.4303588867188 27.97266006469727 341.3260803222656 39.64701461791992 C 342.5664367675781 43.36360168457031 348.0538940429688 43.84019088745117 352.6959533691406 43.84019088745117 C 356.8231201171875 43.84019088745117 361.6597290039063 43.40683746337891 366.7803039550781 42.94807052612305 C 371.8946533203125 42.48983764648438 377.1831359863281 42.01601409912109 381.6656494140625 42.01601409912109 C 385.605712890625 42.01601409912109 388.5385437011719 42.39867401123047 390.4194030761719 43.15583801269531 C 390.356689453125 43.24756622314453 390.2908020019531 43.34422302246094 390.2215270996094 43.44601440429688 C 389.5091857910156 44.49307250976563 388.5532531738281 45.9399528503418 387.4570007324219 47.6302490234375 C 384.8968505859375 51.57783508300781 381.9486083984375 56.27160263061523 379.3681335449219 60.50801467895508 C 367.5960693359375 79.83454132080078 367.5960693359375 82.55654144287109 367.5960693359375 83.45101165771484 C 367.5960693359375 85.68460083007813 369.7964782714844 87.59542846679688 374.95361328125 89.84048461914063 C 378.8925476074219 91.55519104003906 384.1842956542969 93.29466247558594 389.3018493652344 94.97683715820313 C 393.9574279785156 96.50718688964844 398.7715454101563 98.089599609375 402.4867858886719 99.62783813476563 C 407.5017700195313 101.7041931152344 408.7381286621094 102.9868392944336 409.0287170410156 103.5666046142578 C 409.0932312011719 103.6953125 409.0895080566406 103.7496337890625 409.0809020996094 103.7810592651367 C 409.0423278808594 103.8473052978516 408.6979675292969 104.3554763793945 406.8261413574219 105.1768951416016 C 405.4034118652344 105.8012466430664 403.4620666503906 106.453369140625 400.8910827636719 107.1704864501953 C 396.0315856933594 108.5259552001953 389.6570129394531 109.8948364257813 383.4923095703125 111.2186584472656 C 377.4290771484375 112.5207214355469 371.159423828125 113.867073059082 366.2968444824219 115.208251953125 C 360.2770080566406 116.8687210083008 357.2693786621094 118.2668914794922 356.2399597167969 119.8834228515625 C 355.1619567871094 121.5764846801758 355.9197692871094 124.0468368530273 358.855712890625 128.4101257324219 C 361.0509033203125 131.6724853515625 364.1455383300781 135.5237121582031 367.4219665527344 139.6010131835938 C 370.8550109863281 143.8733062744141 374.4049987792969 148.2911376953125 376.7386474609375 151.8660736083984 C 379.9217224121094 156.742431640625 379.3062438964844 157.7623138427734 379.2986145019531 157.7704315185547 C 379.2958984375 157.7732543945313 379.0006103515625 158.0433654785156 377.7457275390625 158.0434875488281 C 373.6292419433594 158.0439605712891 365.09130859375 155.2300109863281 356.83447265625 152.5087127685547 C 347.8974304199219 149.5632476806641 338.6561279296875 146.5175476074219 333.5697326660156 146.5175476074219 C 331.9133605957031 146.5175476074219 330.6882934570313 146.8301849365234 329.8245544433594 147.4733123779297 C 326.4531860351563 149.9837799072266 329.5594787597656 157.6971893310547 335.3400268554688 171.1143035888672 C 337.64794921875 176.4712524414063 340.0344848632813 182.0106048583984 341.3677062988281 186.330078125 C 342.0484313964844 188.5355987548828 342.4085388183594 190.2826538085938 342.4380798339844 191.5226593017578 C 342.4591369628906 192.4098968505859 342.3091735839844 193.0272521972656 342.0368347167969 193.1741333007813 C 341.8564758300781 193.2714233398438 341.5563049316406 193.3250122070313 341.1915283203125 193.3251342773438 C 339.4015502929688 193.3255462646484 336.2168884277344 192.1451873779297 331.7259521484375 189.8167724609375 C 327.4991760253906 187.6253051757813 322.4677124023438 184.6111907958984 317.6020202636719 181.6963043212891 C 306.5843505859375 175.0961303710938 296.1777648925781 168.8619537353516 290.5470581054688 168.8619537353516 C 289.8017272949219 168.8619537353516 289.1273498535156 168.9700775146484 288.5426025390625 169.1833648681641 C 285.8977661132813 170.1481323242188 284.7951354980469 172.7496032714844 285.2653503417969 176.9154205322266 C 285.6274719238281 180.12353515625 286.855712890625 184.1068878173828 288.0434265136719 187.9591369628906 C 289.0129089355469 191.1033630371094 290.0153503417969 194.3546600341797 290.5220031738281 197.1005401611328 C 291.0333557128906 199.8718414306641 290.9754943847656 201.8159484863281 290.3500061035156 202.8789520263672 C 290.1436462402344 203.2295989990234 289.7529602050781 203.7203674316406 288.7468872070313 203.9326629638672 C 288.6701354980469 203.9488983154297 288.5354919433594 203.9681854248047 288.3292541503906 203.9682464599609 C 286.6763000488281 203.9687194824219 283.443359375 202.8444213867188 278.7200622558594 200.6267242431641 C 274.2939453125 198.5484771728516 268.9532470703125 195.7027740478516 263.7884216308594 192.9508361816406 C 252.385009765625 186.8747711181641 241.614013671875 181.1356658935547 236.6581268310547 181.1356658935547 C 236.4241333007813 181.1356658935547 236.1980133056641 181.1478881835938 235.9860687255859 181.1719512939453 C 234.7078399658203 181.3170776367188 233.5884857177734 182.1851959228516 232.5641326904297 183.8258972167969 C 231.8023071289063 185.0460205078125 231.0888366699219 186.6903076171875 230.3829498291016 188.8527221679688 C 229.2511291503906 192.3200073242188 228.1703033447266 197.0744171142578 227.1705474853516 202.9839019775391 C 226.248046875 208.4364318847656 225.5622253417969 213.9002227783203 225.1278839111328 217.7570953369141 Z M 41.22912979125977 52.51530838012695 C 40.67277526855469 52.51530838012695 40.16606903076172 52.20924758911133 39.90683364868164 51.7165412902832 C 39.6267204284668 51.18417358398438 39.74028015136719 50.63180923461914 39.90141677856445 50.34351348876953 L 41.46571731567383 49.82571792602539 C 42.17083358764648 50.01848220825195 42.62936401367188 50.70930862426758 42.53230667114258 51.43260192871094 C 42.47647476196289 51.84843063354492 42.27979278564453 52.10468292236328 42.05497360229492 52.26255035400391 L 41.29853439331055 52.51293563842773 C 41.26597595214844 52.51494598388672 41.24205017089844 52.51530838012695 41.22912979125977 52.51530838012695 Z M 392.6468505859375 44.17160034179688 C 392.3082580566406 44.17160034179688 391.9956665039063 44.05865859985352 391.7448425292969 43.8685188293457 L 391.947509765625 42.28437423706055 L 393.5367126464844 41.49024200439453 L 393.2077026367188 44.06189346313477 C 393.0290832519531 44.13465881347656 392.8404235839844 44.17160034179688 392.6468505859375 44.17160034179688 Z M 298.1576538085938 -12.70710468292236 C 298.150146484375 -12.70710468292236 298.1426391601563 -12.7071590423584 298.1351623535156 -12.7072639465332 L 296.8236389160156 -14.01526069641113 L 297.8151550292969 -15.00679206848145 L 299.4130554199219 -13.4131965637207 C 299.2447509765625 -13.10825347900391 298.8055114746094 -12.70710468292236 298.1576538085938 -12.70710468292236 Z M 246.712890625 -35.00339889526367 C 246.6620635986328 -35.00339889526367 246.6134338378906 -35.00607299804688 246.5670776367188 -35.01087188720703 L 246.2072143554688 -35.779541015625 L 246.8538055419922 -37.71260452270508 L 247.8554229736328 -35.57334136962891 C 247.5866546630859 -35.21645736694336 247.1595458984375 -35.00339889526367 246.712890625 -35.00339889526367 Z" stroke="none"/><path d="M 199.9731750488281 -38.62800598144531 C 199.7147674560547 -37.85502624511719 199.4105224609375 -36.783935546875 199.0765380859375 -35.30680847167969 C 198.3997802734375 -32.31356811523438 197.8017730712891 -28.59539794921875 197.2234802246094 -24.99969482421875 C 196.5614166259766 -20.88304138183594 195.9360656738281 -16.9947509765625 195.1795959472656 -13.94886779785156 C 194.7366027832031 -12.16493225097656 194.2784271240234 -10.80833435058594 193.7789459228516 -9.80145263671875 C 193.4138336181641 -9.065399169921875 193.0130157470703 -8.482040405273438 192.5534820556641 -8.018112182617188 C 191.5868988037109 -7.042221069335938 190.5520782470703 -6.79034423828125 189.8547210693359 -6.750869750976563 C 189.7288970947266 -6.743759155273438 189.5995941162109 -6.7401123046875 189.4703674316406 -6.7401123046875 C 185.2490692138672 -6.7401123046875 179.9909515380859 -10.43545532226563 171.8328399658203 -16.52145385742188 C 168.9104766845703 -18.70152282714844 166.1502532958984 -20.76075744628906 163.7188873291016 -22.29916381835938 C 160.6905975341797 -24.21536254882813 159.4739227294922 -24.46168518066406 159.1416625976563 -24.48916625976563 C 158.9886627197266 -24.40011596679688 158.5363311767578 -24.08438110351563 157.8014831542969 -23.1392822265625 C 157.0627136230469 -22.18916320800781 156.2237243652344 -20.84127807617188 155.3076629638672 -19.13316345214844 C 153.4940185546875 -15.7513427734375 151.5896606445313 -11.36651611328125 149.7479553222656 -7.1260986328125 C 147.8276519775391 -2.704803466796875 146.0139007568359 1.4713134765625 144.2210693359375 4.787124633789063 C 143.1971893310547 6.6806640625 142.2675933837891 8.124832153320313 141.3792419433594 9.202011108398438 C 140.048828125 10.8153076171875 138.6993103027344 11.72142028808594 137.2535400390625 11.97218322753906 L 135.5578918457031 12.26637268066406 L 134.4480133056641 10.95112609863281 C 122.9284820556641 -2.699920654296875 112.59619140625 -13.20857238769531 103.7381896972656 -20.28280639648438 C 99.966064453125 -23.29531860351563 97.13900756835938 -25.13584899902344 95.1600341796875 -26.26866149902344 C 95.22598266601563 -25.31211853027344 95.3673095703125 -24.09701538085938 95.62734985351563 -22.55728149414063 C 96.27154541015625 -18.74363708496094 97.40325927734375 -14.20492553710938 98.60140991210938 -9.399749755859375 C 100.1431884765625 -3.216522216796875 101.7374877929688 3.17724609375 102.3250732421875 8.32672119140625 C 102.6670227050781 11.323486328125 102.6436462402344 13.68719482421875 102.2536010742188 15.55300903320313 C 101.5249633789063 19.03836059570313 99.57125854492188 20.43266296386719 98.06265258789063 20.98783874511719 C 97.691650390625 21.12466430664063 97.29202270507813 21.19407653808594 96.87484741210938 21.19407653808594 C 95.83200073242188 21.19407653808594 94.25607299804688 21.19407653808594 77.39041137695313 12.55848693847656 C 70.12008666992188 8.835968017578125 63.07107543945313 5.069198608398438 61.7249755859375 4.348220825195313 C 53.38113403320313 1.587173461914063 43.2342529296875 -0.72821044921875 30.71771240234375 -2.727630615234375 C 19.970703125 -4.44439697265625 9.726715087890625 -5.56768798828125 1.49554443359375 -6.47027587890625 C 0.57379150390625 -6.571334838867188 -0.318267822265625 -6.669158935546875 -1.1778564453125 -6.76422119140625 L -1.2366943359375 -6.77069091796875 L -1.295166015625 -6.779510498046875 C -10.08639526367188 -8.104156494140625 -18.53787231445313 -8.7757568359375 -26.41485595703125 -8.775634765625 C -30.88427734375 -8.775588989257813 -34.33480834960938 -8.553070068359375 -36.76043701171875 -8.312179565429688 C -33.74020385742188 -6.910186767578125 -29.88604736328125 -5.199005126953125 -25.47286987304688 -3.239639282226563 C -12.39013671875 2.568817138671875 5.5235595703125 10.52218627929688 20.38046264648438 18.73777770996094 C 28.94888305664063 23.19087219238281 35.53005981445313 30.23222351074219 39.544189453125 35.35848999023438 C 43.21649169921875 40.04837036132813 47.03048706054688 46.1982421875 47.21478271484375 48.87825012207031 C 47.29830932617188 50.09318542480469 46.81207275390625 51.16789245605469 45.880615234375 51.8267822265625 C 44.48770141601563 52.81201934814453 43.572265625 53.41094207763672 42.88912963867188 53.76951599121094 C 42.56472778320313 54.13930511474609 42.1475830078125 54.59516143798828 41.63064575195313 55.1448974609375 C 40.43511962890625 56.41595458984375 38.50582885742188 56.91118621826172 34.74954223632813 56.91118621826172 C 28.6318359375 56.91118621826172 18.01678466796875 55.51036834716797 7.751190185546875 54.15566253662109 C 0.27252197265625 53.16868591308594 -7.4075927734375 52.15518951416016 -12.77227783203125 51.77566528320313 C -12.04397583007813 52.17442321777344 -11.21237182617188 52.61679840087891 -10.26205444335938 53.10713195800781 C -6.02716064453125 55.29219055175781 -0.648406982421875 57.81954193115234 4.553253173828125 60.26377868652344 C 10.391845703125 63.00724792480469 15.90664672851563 65.59854125976563 20.07424926757813 67.80701446533203 C 22.3997802734375 69.03936767578125 24.09942626953125 70.04612731933594 25.27041625976563 70.88483428955078 C 26.06759643554688 71.45578002929688 26.63824462890625 71.95771789550781 27.06637573242188 72.46442413330078 C 28.45452880859375 74.1075439453125 28.09429931640625 75.65024566650391 27.87478637695313 76.23783874511719 C 27.016845703125 78.53272247314453 24.38095092773438 79.00260162353516 23.5147705078125 79.15701293945313 C 22.22640991210938 79.38665771484375 20.52835083007813 79.49830627441406 18.3236083984375 79.49830627441406 C 13.03201293945313 79.49830627441406 5.49078369140625 78.84754180908203 -1.802154541015625 78.21819305419922 C -5.338714599609375 77.91297912597656 -8.776153564453125 77.61632537841797 -11.88052368164063 77.39699554443359 C -7.883575439453125 78.77670288085938 -3.318878173828125 80.30362701416016 1.12506103515625 81.79019165039063 C 6.776885986328125 83.68083953857422 12.11529541015625 85.46659851074219 16.1630859375 86.90336608886719 C 18.3707275390625 87.68701171875 19.99978637695313 88.29824829101563 21.1434326171875 88.77195739746094 C 21.837646484375 89.05948638916016 22.366943359375 89.30242156982422 22.76153564453125 89.51466369628906 C 23.078369140625 89.68507385253906 23.32870483398438 89.84530639648438 23.54931640625 90.01889801025391 C 24.65042114257813 90.88560485839844 24.81484985351563 91.96583557128906 24.81484985351563 92.53260040283203 C 24.81484985351563 94.35589599609375 24.92825317382813 96.24771881103516 25.13449096679688 97.86201477050781 C 25.48870849609375 100.6526565551758 22.81759643554688 102.324836730957 21.93978881835938 102.8743057250977 C 20.6396484375 103.6882476806641 18.80795288085938 104.5678939819336 16.34002685546875 105.5635452270508 C 11.97824096679688 107.3233108520508 6.18365478515625 109.22119140625 0.57977294921875 111.0566024780273 C -3.197662353515625 112.2938232421875 -6.800537109375 113.473876953125 -9.910919189453125 114.5867462158203 C -5.356781005859375 114.4991989135742 0.188079833984375 114.2869491577148 5.592132568359375 114.0800704956055 C 12.4302978515625 113.8183670043945 18.88925170898438 113.5711288452148 23.24676513671875 113.5711288452148 C 24.8935546875 113.5711288452148 26.13894653320313 113.6066589355469 27.05419921875 113.6797180175781 C 28.16253662109375 113.7681884765625 30.01754760742188 113.9163055419922 30.92190551757813 115.5650100708008 C 33.02978515625 119.4100723266602 35.46307373046875 122.9532470703125 38.361083984375 126.3974227905273 C 39.16378784179688 127.3517150878906 39.86712646484375 129.0591278076172 38.65948486328125 131.7740783691406 C 38.14846801757813 132.9229583740234 37.29119873046875 134.2940063476563 36.03866577148438 135.9656677246094 C 33.88873291015625 138.8350677490234 30.78189086914063 142.3132476806641 27.77743530273438 145.6768951416016 C 25.3494873046875 148.3950653076172 22.83883666992188 151.2057800292969 20.95223999023438 153.5671844482422 C 20.0050048828125 154.7527618408203 19.26187133789063 155.7677001953125 18.7427978515625 156.5847320556641 C 22.99313354492188 156.4927215576172 30.905029296875 154.2000122070313 38.56170654296875 151.9813079833984 C 47.08306884765625 149.5120697021484 55.1318359375 147.1797790527344 60.08447265625 147.1797790527344 C 61.94125366210938 147.1797790527344 63.37973022460938 147.5080718994141 64.48223876953125 148.1834869384766 C 65.63690185546875 148.8908996582031 66.37283325195313 150.0149536132813 66.55441284179688 151.3485412597656 C 67.07379150390625 155.1618347167969 62.91018676757813 159.8402404785156 55.5064697265625 167.7810668945313 C 53.21548461914063 170.2382507324219 50.84649658203125 172.7790679931641 49.08026123046875 174.9320068359375 C 48.14566040039063 176.0712585449219 47.52902221679688 176.9239196777344 47.12228393554688 177.5498809814453 C 52.21499633789063 177.2704010009766 62.89886474609375 174.0881042480469 72.37518310546875 171.2654876708984 C 83.25442504882813 168.0250091552734 93.53036499023438 164.9642486572266 98.77084350585938 164.9642486572266 C 99.8817138671875 164.9642486572266 100.7985534667969 165.0946044921875 101.5737915039063 165.3628997802734 C 102.8843078613281 165.8164215087891 104.6123657226563 166.9268341064453 105.4023132324219 169.6412506103516 C 105.8182373046875 171.0704803466797 105.9366149902344 172.8403015136719 105.7641906738281 175.0517730712891 C 105.4793701171875 178.7035980224609 104.4254760742188 183.2192993164063 103.4063110351563 187.5863037109375 C 102.5760192871094 191.1438293457031 101.7174682617188 194.8225402832031 101.344482421875 197.7747802734375 C 100.9355163574219 201.011962890625 101.2694091796875 202.1685791015625 101.4148254394531 202.4960327148438 C 101.4339294433594 202.4967803955078 101.4555358886719 202.4972534179688 101.4797668457031 202.4972534179688 C 102.32177734375 202.4972534179688 104.5533752441406 202.0299530029297 110.0391235351563 198.9004821777344 C 114.1489562988281 196.5558929443359 119.0097198486328 193.3451843261719 123.7104187011719 190.2401885986328 C 136.0311889648438 182.1018371582031 143.8726043701172 177.1603088378906 148.8677215576172 177.1603088378906 C 149.2395477294922 177.1603088378906 149.6017150878906 177.1876068115234 149.9443664550781 177.2414855957031 C 155.2664184570313 178.0786590576172 157.4691314697266 183.6850128173828 158.1929473876953 185.5273132324219 C 159.6663055419922 189.2772521972656 160.6408996582031 194.0193634033203 161.5834808349609 198.6053619384766 C 162.5027160644531 203.078125 163.4533081054688 207.7032470703125 164.8023681640625 211.0016021728516 C 166.4246520996094 214.9679565429688 167.8753051757813 215.2463684082031 168.4434204101563 215.2887878417969 C 168.587158203125 215.2515258789063 169.1714172363281 215.0550537109375 170.3888397216797 214.1194152832031 C 171.4613037109375 213.2952575683594 172.7786560058594 212.0824279785156 174.3043670654297 210.5146636962891 C 177.2942504882813 207.4422454833984 180.7835998535156 203.3241882324219 184.1580657958984 199.3416595458984 C 193.8623657226563 187.8887176513672 199.5797729492188 181.4088897705078 204.2391815185547 181.4088897705078 C 206.1010131835938 181.4088897705078 207.4856567382813 182.8187255859375 208.5946044921875 184.1977844238281 C 209.4972534179688 185.3203735351563 210.5447235107422 186.8630676269531 211.7968292236328 188.9141235351563 C 213.8015441894531 192.1980133056641 216.3032531738281 196.7544860839844 219.2324829101563 202.4570159912109 C 221.0226287841797 205.9420166015625 222.7599487304688 209.4429168701172 224.2516174316406 212.4990844726563 C 224.6390228271484 209.4929046630859 225.1201324462891 206.1112365722656 225.6915435791016 202.7336578369141 C 226.7036590576172 196.7514801025391 227.8023071289063 191.9246520996094 228.9570159912109 188.3872528076172 C 230.2081298828125 184.5545959472656 232.1184844970703 180.1014862060547 235.8165435791016 179.6815490722656 C 236.0844879150391 179.6510772705078 236.3676605224609 179.6356658935547 236.6581268310547 179.6356658935547 C 241.6304931640625 179.6356658935547 250.4929504394531 184.1664276123047 264.4979553222656 191.6283111572266 C 269.6455383300781 194.3709564208984 274.9683837890625 197.2069549560547 279.359375 199.2687225341797 C 285.2881774902344 202.0525970458984 287.5243530273438 202.4682464599609 288.3296508789063 202.4682464599609 C 288.3972473144531 202.4682464599609 288.4349975585938 202.4644317626953 288.4462890625 202.4630737304688 C 288.9132690429688 202.3628692626953 288.9997863769531 202.2157897949219 289.0571899414063 202.1181945800781 C 289.2552490234375 201.7816009521484 289.6507873535156 200.6453704833984 289.0469360351563 197.3727111816406 C 288.5561828613281 194.7129516601563 287.5668334960938 191.5041961669922 286.6100158691406 188.4010772705078 C 285.4019470214844 184.4828338623047 284.1527099609375 180.4312438964844 283.7748413085938 177.0836029052734 C 283.0797119140625 170.9253082275391 285.7043762207031 168.6220092773438 288.0287780761719 167.7741241455078 C 288.7787170410156 167.5005950927734 289.6259460449219 167.3619537353516 290.5470581054688 167.3619537353516 C 296.5932006835938 167.3619537353516 307.1738891601563 173.7001342773438 318.3758239746094 180.4104766845703 C 323.2215881347656 183.3132476806641 328.2322998046875 186.3148345947266 332.417724609375 188.4848937988281 C 334.60400390625 189.6184234619141 336.3987731933594 190.4431915283203 337.9046630859375 191.0063629150391 C 339.4911193847656 191.5997314453125 340.4307861328125 191.7726593017578 340.9374694824219 191.8138885498047 C 340.9471435546875 191.4711303710938 340.9203491210938 190.9264984130859 340.7777099609375 190.1102447509766 C 340.5509643554688 188.8127746582031 340.0855407714844 187.1338958740234 339.3942565917969 185.1203002929688 C 338.0348510742188 181.1603088378906 335.9645385742188 176.3549499511719 333.9624328613281 171.7077789306641 C 331.7124938964844 166.4854888916016 329.5873107910156 161.5527801513672 328.2647705078125 157.4587707519531 C 326.8877258300781 153.1960144042969 325.8897094726563 148.5331878662109 328.9286499023438 146.2702484130859 C 330.0606689453125 145.4273071289063 331.5787658691406 145.0175476074219 333.5697021484375 145.0175476074219 C 338.8973083496094 145.0175476074219 347.8392333984375 147.9644775390625 357.3062438964844 151.0844879150391 C 361.4779663085938 152.4593048095703 365.7917175292969 153.8810119628906 369.4549560546875 154.9118347167969 C 373.1941223144531 155.9640808105469 375.9339294433594 156.5121612548828 377.6034851074219 156.5421752929688 C 377.2630310058594 155.6561126708984 376.4548950195313 154.0439910888672 374.5404968261719 151.2906036376953 C 372.2890625 148.0526580810547 369.2203674316406 144.2337799072266 366.2526550292969 140.5406036376953 C 356.8538818359375 128.8441925048828 352.4481201171875 123.0458374023438 354.9746704101563 119.0777740478516 C 357.1681213378906 115.6330718994141 364.8504333496094 113.6876602172852 383.1773681640625 109.7520751953125 C 388.9596557617188 108.510368347168 394.9388427734375 107.2263641357422 399.626953125 105.9617767333984 C 402.08349609375 105.299072265625 403.9853515625 104.6990127563477 405.4412536621094 104.1272506713867 C 406.0387878417969 103.892578125 406.4978637695313 103.6863098144531 406.8479614257813 103.5123062133789 C 406.6324768066406 103.3605422973633 406.3652648925781 103.186637878418 406.0348815917969 102.9913635253906 C 404.9693603515625 102.3615417480469 403.4949951171875 101.6601333618164 401.65283203125 100.9067153930664 C 398.0278930664063 99.42413330078125 393.3537292480469 97.88765716552734 388.8334350585938 96.40184020996094 C 383.6833190917969 94.70895385742188 378.3578491210938 92.95842742919922 374.3548889160156 91.21583557128906 C 372.0586547851563 90.2161865234375 370.3352966308594 89.28095245361328 369.0863647460938 88.35659790039063 C 367.1021423339844 86.88801574707031 366.0960693359375 85.23754119873047 366.0960693359375 83.45101165771484 C 366.0960693359375 82.16847991943359 366.5748291015625 80.08748626708984 370.0478820800781 73.60089874267578 C 372.0307312011719 69.89765930175781 374.7354736328125 65.23007202148438 378.0870056152344 59.7276611328125 C 380.6744689941406 55.47972106933594 383.6310119628906 50.77288818359375 386.198486328125 46.81401062011719 C 386.8694152832031 45.77951049804688 387.4885559082031 44.83493041992188 388.0323791503906 44.01602172851563 C 386.5923156738281 43.72187805175781 384.5531616210938 43.515869140625 381.6657104492188 43.51600646972656 C 377.250732421875 43.51618957519531 371.9967651367188 43.98689270019531 366.9158325195313 44.44207763671875 C 361.76025390625 44.90396118164063 356.8905944824219 45.34019470214844 352.6959533691406 45.34019470214844 C 347.5507202148438 45.34019470214844 341.44677734375 44.7470703125 339.9031982421875 40.12184143066406 C 335.7674255371094 27.72819519042969 342.9673767089844 17.51431274414063 346.8354187011719 12.02706909179688 C 347.0311279296875 11.74945068359375 347.2457580566406 11.4449462890625 347.4589538574219 11.13824462890625 C 345.1754455566406 11.15553283691406 342.0987243652344 11.93463134765625 338.0574951171875 13.51860046386719 C 334.2131958007813 15.02542114257813 329.9522399902344 17.08372497558594 325.8316040039063 19.07424926757813 C 317.2044677734375 23.24165344238281 309.0558471679688 27.17794799804688 303.0132446289063 27.17794799804688 C 301.4207763671875 27.17794799804688 299.9898986816406 26.90194702148438 298.7603759765625 26.357666015625 C 295.9588317871094 25.117431640625 294.1535949707031 22.17689514160156 293.2414855957031 17.36801147460938 C 292.6192626953125 14.08760070800781 292.4080200195313 9.870361328125 292.6135864257813 4.833419799804688 C 292.8203430175781 -0.230438232421875 293.4337463378906 -5.430923461914063 294.0372009277344 -9.267654418945313 C 286.411376953125 -6.505905151367188 271.9442749023438 -1.150299072265625 263.4981384277344 1.9891357421875 L 260.9361267089844 2.941360473632813 L 259.7500610351563 0.4788970947265625 C 259.7083740234375 0.392303466796875 255.534423828125 -8.277923583984375 251.5169525146484 -16.97305297851563 C 249.1501770019531 -22.095458984375 247.2973022460938 -26.2301025390625 246.0098266601563 -29.26216125488281 C 245.3990783691406 -30.700439453125 244.9204864501953 -31.87712097167969 244.5590972900391 -32.8297119140625 C 243.3054656982422 -32.06184387207031 241.5111694335938 -30.42564392089844 239.1643676757813 -27.00010681152344 C 236.2848358154297 -22.79698181152344 233.7017822265625 -17.56010437011719 231.8157196044922 -13.73634338378906 C 231.0338897705078 -12.15133666992188 230.3587188720703 -10.78245544433594 229.8087768554688 -9.784393310546875 C 229.1421356201172 -8.574462890625 228.1346588134766 -6.746047973632813 226.0688323974609 -6.746047973632813 C 224.3118896484375 -6.746047973632813 223.1070709228516 -7.64727783203125 218.5128326416016 -13.61351013183594 C 215.8723602294922 -17.04257202148438 212.5874176025391 -21.56575012207031 209.4106597900391 -25.93998718261719 C 206.7909545898438 -29.54728698730469 204.3164825439453 -32.95445251464844 202.2528381347656 -35.68687438964844 C 201.2843170166016 -36.96922302246094 200.5414733886719 -37.92129516601563 199.9731750488281 -38.62800598144531 M 199.7332000732422 -43.15724182128906 C 201.5886077880859 -43.15724182128906 223.8024749755859 -9.746047973632813 226.0688323974609 -9.746047973632813 C 227.5835266113281 -9.746047973632813 236.9926300048828 -36.47891235351563 246.4114227294922 -36.48171997070313 C 246.4936370849609 -36.48173522949219 246.5749206542969 -36.47970581054688 246.6571350097656 -36.47563171386719 C 245.81787109375 -35.36116027832031 262.452880859375 -0.8229217529296875 262.452880859375 -0.8229217529296875 C 262.452880859375 -0.8229217529296875 294.9475402832031 -12.90106201171875 297.9890441894531 -13.84320068359375 C 296.8636169433594 -10.17491149902344 292.1114807128906 20.13336181640625 299.9747924804688 23.61442565917969 C 300.8505249023438 24.00210571289063 301.8728637695313 24.17794799804688 303.0132446289063 24.17794799804688 C 313.9197998046875 24.17794799804688 335.8202209472656 8.138702392578125 347.5355224609375 8.137954711914063 C 349.0543212890625 8.137863159179688 350.4010925292969 8.407363891601563 351.5313110351563 9.016372680664063 C 353.5571899414063 11.09188842773438 337.4170227050781 23.19401550292969 342.7489624023438 39.17219543457031 C 343.558837890625 41.59896850585938 347.4201965332031 42.34019470214844 352.6959838867188 42.34019470214844 C 360.97314453125 42.34019470214844 372.7359008789063 40.51637268066406 381.6656188964844 40.51600646972656 C 386.4757385253906 40.51579284667969 390.4614562988281 41.04461669921875 392.6415710449219 42.67280578613281 C 392.0558166503906 42.9114990234375 369.0960693359375 78.48268127441406 369.0960693359375 83.45101165771484 C 369.0960693359375 90.25042724609375 412.7969970703125 97.42642211914063 410.4987182617188 104.2716598510742 C 408.599365234375 109.9296035766602 361.0572509765625 115.1108932495117 357.5051879882813 120.6891326904297 C 354.3994140625 125.56689453125 384.9317016601563 154.0031280517578 380.3877868652344 158.8017730712891 C 379.8998107910156 159.3172149658203 378.988037109375 159.5435028076172 377.7459106445313 159.5435028076172 C 368.8746643066406 159.5435028076172 343.0929260253906 148.0175323486328 333.5697326660156 148.0175323486328 C 332.3095397949219 148.0175323486328 331.3342590332031 148.2193298339844 330.7203674316406 148.6764221191406 C 325.3448486328125 152.6793670654297 349.4653015136719 190.8715972900391 342.7489624023438 194.4943084716797 C 342.3318176269531 194.7193298339844 341.8079528808594 194.8251190185547 341.19189453125 194.8251190185547 C 331.8106689453125 194.8251190185547 300.76220703125 170.3619384765625 290.5470581054688 170.3619384765625 C 289.9845581054688 170.3619384765625 289.4856567382813 170.4360504150391 289.0566101074219 170.5925445556641 C 280.114013671875 173.8545989990234 299.8189086914063 203.1293029785156 289.0566101074219 205.4003601074219 C 288.8403930664063 205.4459991455078 288.5966491699219 205.4682464599609 288.3296508789063 205.4682464599609 C 279.7455444335938 205.4682464599609 245.7034301757813 182.6356811523438 236.6581268310547 182.6356811523438 C 236.4806213378906 182.6356811523438 236.3131256103516 182.6444396972656 236.1552429199219 182.6623687744141 C 229.5885467529297 183.4080200195313 226.0688323974609 223.2465972900391 226.0688323974609 223.2465972900391 C 226.0688323974609 223.2465972900391 207.9990081787109 184.4088897705078 204.2391815185547 184.4088897705078 C 197.2276153564453 184.4088897705078 175.5673370361328 218.2926940917969 168.4783172607422 218.2926940917969 C 168.4369659423828 218.2926940917969 168.3964233398438 218.2915649414063 168.3560638427734 218.2892456054688 C 156.8226623535156 217.6281890869141 160.5277709960938 181.9431304931641 149.4781951904297 180.205078125 C 149.2870941162109 180.1750183105469 149.0829467773438 180.1602935791016 148.8677062988281 180.1602935791016 C 139.9191436767578 180.1602935791016 110.5906677246094 205.4972381591797 101.4797668457031 205.4972381591797 C 101.1581420898438 205.4972381591797 100.8621215820313 205.4657287597656 100.5926513671875 205.4003601074219 C 92.27084350585938 203.382080078125 108.52294921875 170.9423675537109 100.5926513671875 168.1978912353516 C 100.1319274902344 168.0384674072266 99.51669311523438 167.9642333984375 98.77084350585938 167.9642333984375 C 89.03445434570313 167.9642333984375 56.71414184570313 180.5697021484375 46.443115234375 180.5697021484375 C 45.46456909179688 180.5697021484375 44.6878662109375 180.4555511474609 44.148193359375 180.205078125 C 38.0960693359375 177.3964233398438 68.47564697265625 154.1483612060547 62.91500854492188 150.7415466308594 C 62.27847290039063 150.3516082763672 61.31143188476563 150.1798095703125 60.08450317382813 150.1798095703125 C 51.00411987304688 150.1798095703125 27.67214965820313 159.5875854492188 18.48358154296875 159.5875854492188 C 17.02505493164063 159.5875854492188 15.92413330078125 159.3508605957031 15.29183959960938 158.8017730712891 C 11.63330078125 155.62548828125 39.167236328125 132.0162506103516 36.0653076171875 128.3285980224609 C 33.10055541992188 124.8050689697266 30.54400634765625 121.1164245605469 28.291259765625 117.0071868896484 C 28.11721801757813 116.6899719238281 26.21124267578125 116.5711364746094 23.24676513671875 116.5711364746094 C 14.40280151367188 116.5711364746094 -3.8729248046875 117.6283798217773 -13.74777221679688 117.6283798217773 C -17.6383056640625 117.6283798217773 -20.22210693359375 117.4645004272461 -20.4149169921875 117.0071868896484 C -22.11322021484375 112.9868392944336 22.77484130859375 103.09619140625 22.15835571289063 98.23977661132813 C 21.945068359375 96.57025146484375 21.81484985351563 94.55907440185547 21.81484985351563 92.53260040283203 C 21.81484985351563 91.13854217529297 -25.46905517578125 76.88095092773438 -25.31674194335938 75.18730926513672 C -25.24212646484375 74.34919738769531 -23.15277099609375 74.03983306884766 -19.86419677734375 74.03977966308594 C -10.59326171875 74.03964996337891 8.21661376953125 76.49830627441406 18.3236083984375 76.49830627441406 C 22.13418579101563 76.49830627441406 24.70510864257813 76.14929962158203 25.06472778320313 75.18730926513672 C 26.36624145507813 71.70359802246094 -22.72476196289063 53.05101013183594 -20.4149169921875 49.37754821777344 C -20.07852172851563 48.842041015625 -18.66476440429688 48.61982727050781 -16.48159790039063 48.61979675292969 C -5.828460693359375 48.61970520019531 23.15396118164063 53.91118621826172 34.74951171875 53.91118621826172 C 37.21914672851563 53.91118621826172 38.89801025390625 53.67150115966797 39.4454345703125 53.08948516845703 C 40.38333129882813 52.09197998046875 40.85302734375 51.54969787597656 41.07012939453125 51.27259826660156 C 41.07614135742188 51.27423095703125 41.08328247070313 51.27510070800781 41.09176635742188 51.27510070800781 C 41.26351928710938 51.27510070800781 41.96768188476563 50.919921875 44.148193359375 49.37754821777344 C 45.2161865234375 48.6220703125 34.93984985351563 29.66636657714844 18.96347045898438 21.38236999511719 C -8.84710693359375 5.997772216796875 -47.53497314453125 -8.489105224609375 -45.00088500976563 -9.746047973632813 C -43.19589233398438 -10.64149475097656 -36.60311889648438 -11.77552795410156 -26.41494750976563 -11.77565002441406 C -19.44760131835938 -11.77574157714844 -10.79962158203125 -11.24551391601563 -0.848175048828125 -9.746047973632813 C 15.15823364257813 -7.976165771484375 42.43258666992188 -5.245162963867188 62.91500854492188 1.582305908203125 C 62.91500854492188 1.582305908203125 93.84225463867188 18.19404602050781 96.87484741210938 18.19404602050781 C 96.93658447265625 18.19404602050781 96.98641967773438 18.18722534179688 97.0245361328125 18.17318725585938 C 105.7559509277344 14.9599609375 88.8756103515625 -22.98063659667969 92.68060302734375 -30.88252258300781 C 92.60336303710938 -30.52081298828125 105.5717163085938 -27.9200439453125 136.7407836914063 9.016372680664063 C 142.8687133789063 7.95330810546875 151.8025360107422 -26.69351196289063 158.7387237548828 -27.47427368164063 C 158.8461456298828 -27.48638916015625 158.9581756591797 -27.49234008789063 159.0730285644531 -27.49237060546875 C 165.3585815429688 -27.49391174316406 182.5702972412109 -9.7401123046875 189.4703369140625 -9.7401123046875 C 189.5431365966797 -9.7401123046875 189.6142425537109 -9.7420654296875 189.6847229003906 -9.746047973632813 C 193.9948883056641 -9.9898681640625 194.6742401123047 -43.06587219238281 199.7304229736328 -43.1572265625 C 199.7313232421875 -43.15724182128906 199.7322845458984 -43.15724182128906 199.7332000732422 -43.15724182128906 Z M 246.7128601074219 -36.50337219238281 C 246.7399291992188 -36.50337219238281 246.7736511230469 -36.49079895019531 246.8140106201172 -36.46528625488281 C 246.7615356445313 -36.46958923339844 246.7096099853516 -36.4730224609375 246.6571350097656 -36.47563171386719 C 246.6709289550781 -36.49394226074219 246.6894836425781 -36.50337219238281 246.7128601074219 -36.50337219238281 Z M 298.1576538085938 -14.20712280273438 C 298.1912841796875 -14.20712280273438 298.209716796875 -14.10833740234375 298.209716796875 -13.90133666992188 C 298.1874389648438 -13.90133666992188 298.1124877929688 -13.88143920898438 297.9890441894531 -13.84320068359375 C 298.0618591308594 -14.08056640625 298.11962890625 -14.20712280273438 298.1576538085938 -14.20712280273438 Z M 392.6467590332031 42.67156982421875 C 392.65087890625 42.67156982421875 392.6530151367188 42.67483520507813 392.6530151367188 42.68136596679688 C 392.6492614746094 42.67854309082031 392.6453247070313 42.67561340332031 392.6415710449219 42.67280578613281 C 392.6435546875 42.6719970703125 392.6452941894531 42.67156982421875 392.6467590332031 42.67156982421875 Z M 41.2291259765625 51.01533508300781 C 41.25 51.01533508300781 41.22125244140625 51.07974243164063 41.07012939453125 51.27259826660156 C 40.97235107421875 51.24586486816406 41.18960571289063 51.01533508300781 41.2291259765625 51.01533508300781 Z" stroke="none" fill="#1d1d1d"/></g></svg>