<svg width="455.71" height="266.4" version="1.1" viewBox="0 0 455.71 266.4" xmlns="http://www.w3.org/2000/svg">
 <g transform="translate(45.119 43.157)" fill="#fff">
  <path d="m225.13 217.76c-1.7977-3.7527-4.4501-9.2035-7.2297-14.615-2.9125-5.6699-5.396-10.194-7.3817-13.447-3.4652-5.6763-4.9257-6.7868-6.2774-6.7868-2.0739 0-4.6434 1.7093-8.5916 5.7154-3.156 3.2023-6.811 7.5159-10.346 11.687-3.5226 4.1573-7.1653 8.4563-10.274 11.607-4.3397 4.3989-6.0265 4.8741-6.5502 4.8741-0.01265 0-0.024475-3.5095e-4 -0.03624-9.9182e-4 -1.0136-0.058121-1.9048-0.49942-2.7245-1.3491-0.82846-0.85876-1.6034-2.1619-2.3033-3.8732-1.4019-3.4275-2.3668-8.1221-3.2998-12.662-0.92976-4.5239-1.8912-9.2017-3.3174-12.832-1.7578-4.4741-4.0755-6.8791-7.0856-7.3525-0.26576-0.041824-0.54959-0.063004-0.84352-0.063004-4.905 0-14.341 6.2329-24.331 12.832-4.7206 3.1181-9.602 6.3424-13.754 8.7112-4.4126 2.5173-7.5424 3.7938-9.3023 3.794-0.20448 0-0.38394-0.018356-0.53341-0.054596-0.34089-0.082703-0.72642-0.27841-1.0018-1.1035-0.27753-0.83147-0.36047-2.0682-0.24664-3.676 0.23247-3.2829 1.2569-7.6727 2.2477-11.918 1.0065-4.3125 2.0472-8.7718 2.3232-12.31 0.13242-1.6985 0.53548-6.8671-3.1855-8.1548-0.61482-0.21271-1.3712-0.31612-2.3124-0.31612-5.0223 0-15.198 3.0307-25.971 6.2393-10.507 3.1295-21.372 6.3654-26.357 6.3661-0.90932 1.0681e-4 -1.3717-0.11107-1.5911-0.19493 0.020084-0.17393 0.11169-0.5674 0.49617-1.2795 0.43088-0.79817 1.1288-1.8068 2.0744-2.9978 1.8483-2.3279 4.4606-5.1298 6.9869-7.8394 6.8866-7.3862 11.086-12.072 10.659-15.207-0.12141-0.89175-0.595-1.6139-1.3695-2.0885-0.85983-0.52664-2.042-0.78264-3.6141-0.78264-4.7401 0-12.69 2.3036-21.107 4.7425-7.9149 2.2934-16.099 4.6649-20.494 4.6653-1.1482 9.1553e-5 -1.7268-0.16455-2.0041-0.29393 0.096409-0.43532 0.57594-1.6815 2.8787-4.6285 1.9608-2.5094 4.6755-5.5484 7.3006-8.4875 2.9834-3.34 6.0683-6.7937 8.1795-9.6114 2.1666-2.8916 3.9539-5.8262 2.375-7.7032-2.9622-3.5205-5.4504-7.1437-7.6067-11.077-0.51641-0.94135-1.4136-1.2149-6.3598-1.2149-4.3295 0-10.776 0.2467-17.6 0.50794-7.055 0.27-14.35 0.54918-19.394 0.54929-1.6451 4.5776e-5 -2.8333-0.030617-3.6908-0.073509 0.062412-0.032822 0.12716-0.066391 0.19436-0.10072 1.078-0.5507 2.5259-1.1706 4.4266-1.895 3.5993-1.3718 8.1318-2.8563 12.93-4.428 17.422-5.7062 23.965-8.1829 23.534-11.58-0.21388-1.6741-0.33159-3.6335-0.33159-5.5183 0-1.0172-0.88565-1.4935-1.2638-1.6969-0.34971-0.18812-0.83435-0.40988-1.4816-0.67799-1.1195-0.46371-2.725-1.0658-4.9081-1.8408-4.0348-1.4322-9.3669-3.2159-15.012-5.1042-5.7372-1.9192-11.67-3.9037-16.339-5.5572-2.383-0.84399-4.2333-1.529-5.6446-2.0899 0.42518-0.016273 0.91231-0.025856 1.4699-0.025856 4.4708 0 11.135 0.57506 18.19 1.1839 7.2616 0.62659 14.77 1.2746 19.998 1.2746 5.3154 0 7.5232-0.61953 8.1462-2.2858 0.67371-1.8033-0.98465-3.3406-7.0979-6.5801-4.1357-2.1916-9.6347-4.7755-15.457-7.5111-5.4439-2.558-11.073-5.2031-15.418-7.468-2.315-1.2066-4.069-2.2008-5.3622-3.0392-0.58031-0.37619-1.0087-0.68366-1.3243-0.93023 0.41646-0.037361 0.97178-0.064182 1.7077-0.064182 5.1152 0 14.934 1.2957 24.429 2.5488 10.218 1.3484 20.783 2.7426 26.802 2.7426 3.247 0 4.9241-0.37488 5.7885-1.2941 0.60843-0.64704 1.0802-1.1663 1.409-1.551 0.5381-0.24865 1.4077-0.79003 3.0674-1.964 0.29041-0.20541 0.76794-0.68912 0.70388-1.621-0.13971-2.0315-3.3705-7.6091-7.3552-12.698-3.9251-5.0127-10.354-11.895-18.691-16.223-14.803-8.1871-32.691-16.129-45.753-21.929-4.9282-2.1881-9.1844-4.0777-12.35-5.5689-1.509-0.71085-2.6031-1.2548-3.3966-1.6702 0.84787-0.16958 1.8985-0.34151 3.1638-0.5005 2.4228-0.30441 6.5146-0.66729 12.25-0.66729 7.9524 0 16.479 0.67718 25.343 2.0128l0.029235 0.0044117 0.029353 0.003294c0.85918 0.095 1.7508 0.19277 2.6721 0.29377 8.2475 0.90435 18.512 2.0299 29.295 3.7525 12.659 2.0222 22.92 4.369 31.365 7.1738 0.9906 0.53099 8.2546 4.4182 15.755 8.2585 16.544 8.4707 18.068 8.4707 18.801 8.4707 0.24242 0 0.46082-0.037058 0.66777-0.11318 3.9199-1.4426 3.7562-7.0168 3.2922-11.084-0.57647-5.0519-2.1587-11.397-3.6888-17.534-1.2054-4.834-2.3439-9.3999-2.9976-13.271-0.34335-2.0329-0.51818-3.6702-0.53453-5.0054-0.0069504-0.56917 0.016548-1.0427 0.058601-1.4362 1.8664 0.89407 5.4499 2.8603 11.002 7.2942 8.9345 7.1352 19.338 17.713 30.92 31.439l0.55489 0.65765 0.84782-0.14706c1.8818-0.32641 3.6475-2.2466 5.9045-6.4206 1.7622-3.2591 3.5635-7.4065 5.4705-11.797 1.9711-4.5382 4.0092-9.2311 5.9594-12.753 1.0042-1.8136 1.9281-3.2076 2.7461-4.1431 1.0135-1.1592 1.6166-1.3399 1.8288-1.3638 0.051117-0.0057659 0.10712-0.0086479 0.16653-0.0086479 0.73618 0 2.2788 0.42088 5.4476 2.4259 2.4799 1.5692 5.2625 3.6448 8.2085 5.8424 6.5378 4.8769 12.713 9.4834 16.741 9.4839 0.10054 0 0.20125-0.0027647 0.29924-0.0083532 2.183-0.12347 3.1907-2.9865 3.9545-6.0619 0.74124-2.9848 1.3618-6.8428 2.0187-10.927 0.63429-3.9439 1.2902-8.0222 2.0567-11.195 0.39476-1.6342 0.797-2.9286 1.1955-3.8475 0.24174-0.5575 0.44795-0.89915 0.59973-1.1053 0.53011 0.55806 1.5812 1.793 3.6496 4.5224 2.1096 2.7839 4.6698 6.3092 7.3803 10.041 3.1707 4.3659 6.4493 8.8804 9.077 12.293 4.6042 5.9791 5.4191 6.2826 6.3675 6.2826 1.0951 0 1.6963-0.93765 2.4261-2.2622 0.53348-0.96829 1.2016-2.323 1.9753-3.8916 1.9061-3.8646 4.5165-9.1574 7.4565-13.449 1.5647-2.2841 3.0664-4.048 4.4633-5.2429 1.0808-0.92451 2.1001-1.513 3.0429-1.7585 0.32831 1.0481 0.93788 2.6007 1.9575 5.0019 1.2815 3.0177 3.1279 7.1379 5.4881 12.246 4.0125 8.6844 8.1812 17.344 8.2229 17.43l0.59302 1.2313 1.281-0.47618c0.28253-0.10502 24.692-9.1763 32.968-12.131-0.69757 3.7331-1.5749 10.177-1.8307 16.442-0.20093 4.9229 0.0018921 9.0255 0.60281 12.194 0.81342 4.2884 2.3352 6.8718 4.6524 7.8975 1.0372 0.45912 2.2637 0.69194 3.6457 0.69194 5.6991 0 13.697-3.8637 22.165-7.9542 8.229-3.9752 16.738-8.0858 22.357-8.0858 0.92471 0 1.7443 0.11564 2.4483 0.34469-0.080292 0.1523-0.18881 0.34304-0.33539 0.57954-0.39908 0.64394-0.94962 1.4249-1.587 2.3291-3.7154 5.2707-10.631 15.081-6.7354 26.756 1.2404 3.7166 6.7278 4.1932 11.37 4.1932 4.1272 0 8.9638-0.43335 14.084-0.89212 5.1143-0.45823 10.403-0.93206 14.885-0.93206 3.9401 0 6.8729 0.38266 8.7538 1.1398-0.062714 0.091728-0.1286 0.18839-0.19788 0.29018-0.71234 1.0471-1.6683 2.4939-2.7645 4.1842-2.5602 3.9476-5.5084 8.6414-8.0889 12.878-11.772 19.327-11.772 22.049-11.772 22.943 0 2.2336 2.2004 4.1444 7.3575 6.3895 3.9389 1.7147 9.2307 3.4542 14.348 5.1364 4.6556 1.5303 9.4697 3.1128 13.185 4.651 5.015 2.0764 6.2513 3.359 6.5419 3.9388 0.064514 0.12871 0.060791 0.18303 0.052185 0.21445-0.038574 0.066246-0.38293 0.57442-2.2548 1.3958-1.4227 0.62435-3.3641 1.2765-5.9351 1.9936-4.8595 1.3555-11.234 2.7243-17.399 4.0482-6.0632 1.3021-12.333 2.6484-17.195 3.9896-6.0198 1.6605-9.0275 3.0586-10.057 4.6752-1.078 1.6931-0.32019 4.1634 2.6158 8.5267 2.1952 3.2624 5.2898 7.1136 8.5663 11.191 3.433 4.2723 6.983 8.6901 9.3167 12.265 3.1831 4.8764 2.5676 5.8962 2.56 5.9044-0.0027161 0.0028229-0.298 0.27293-1.5529 0.27306-4.1165 4.7302e-4 -12.654-2.8135-20.911-5.5348-8.937-2.9455-18.178-5.9912-23.265-5.9912-1.6564 0-2.8814 0.31264-3.7452 0.95576-3.3714 2.5105-0.26508 10.224 5.5155 23.641 2.3079 5.3569 4.6945 10.896 6.0277 15.216 0.68073 2.2055 1.0408 3.9526 1.0704 5.1926 0.021057 0.88724-0.12891 1.5046-0.40125 1.6515-0.18036 0.09729-0.48053 0.15088-0.84531 0.151-1.79 4.1199e-4 -4.9746-1.1799-9.4656-3.5084-4.2268-2.1915-9.2582-5.2056-14.124-8.1205-11.018-6.6002-21.424-12.834-27.055-12.834-0.74533 0-1.4197 0.10812-2.0045 0.32141-2.6448 0.96477-3.7475 3.5662-3.2773 7.7321 0.36212 3.2081 1.5904 7.1915 2.7781 11.044 0.96948 3.1442 1.9719 6.3955 2.4786 9.1414 0.51135 2.7713 0.45349 4.7154-0.172 5.7784-0.20636 0.35065-0.59705 0.84142-1.6031 1.0537-0.076752 0.016235-0.2114 0.035522-0.41763 0.035583-1.653 4.7302e-4 -4.8859-1.1238-9.6092-3.3415-4.4261-2.0782-9.7668-4.924-14.932-7.6759-11.403-6.0761-22.174-11.815-27.13-11.815-0.23399 0-0.46011 0.012222-0.67206 0.036285-1.2782 0.14513-2.3976 1.0132-3.4219 2.6539-0.76183 1.2201-1.4753 2.8644-2.1812 5.0268-1.1318 3.4673-2.2126 8.2217-3.2124 14.131-0.9225 5.4525-1.6083 10.916-2.0427 14.773zm-183.9-165.24c-0.55635 0-1.0631-0.30606-1.3223-0.79877-0.28011-0.53237-0.16655-1.0847-0.0054169-1.373l1.5643-0.5178c0.70512 0.19276 1.1636 0.88359 1.0666 1.6069-0.055832 0.41583-0.25251 0.67208-0.47733 0.82995l-0.75644 0.25039c-0.032558 0.0020103-0.056484 0.0023727-0.069405 0.0023727zm351.42-8.3437c-0.33859 0-0.65118-0.11294-0.90201-0.30308l0.20267-1.5841 1.5892-0.79413-0.32901 2.5717c-0.17862 0.072765-0.36728 0.10971-0.56085 0.10971zm-94.489-56.879c-0.0075073 0-0.015015-5.4359e-5 -0.022491-1.5926e-4l-1.3115-1.308 0.99152-0.99153 1.5979 1.5936c-0.1683 0.30494-0.60754 0.70609-1.2554 0.70609zm-51.445-22.296c-0.050827 0-0.099457-0.0026741-0.14581-0.007473l-0.35986-0.76867 0.64659-1.9331 1.0016 2.1393c-0.26877 0.35688-0.69588 0.56994-1.1425 0.56994z"/>
  <path d="m199.97-38.628c-0.25841 0.77298-0.56265 1.8441-0.89664 3.3212-0.67676 2.9932-1.2748 6.7114-1.8531 10.307-0.66206 4.1167-1.2874 8.0049-2.0439 11.051-0.44299 1.7839-0.90117 3.1405-1.4007 4.1474-0.36511 0.73605-0.76593 1.3194-1.2255 1.7833-0.96658 0.97589-2.0014 1.2278-2.6988 1.2672-0.12582 0.0071106-0.25513 0.010757-0.38435 0.010757-4.2213 0-9.4794-3.6953-17.638-9.7813-2.9224-2.1801-5.6826-4.2393-8.114-5.7777-3.0283-1.9162-4.245-2.1625-4.5772-2.19-0.153 0.08905-0.60533 0.40479-1.3402 1.3499-0.73877 0.95012-1.5778 2.298-2.4938 4.0061-1.8136 3.3818-3.718 7.7666-5.5597 12.007-1.9203 4.4213-3.7341 8.5974-5.5269 11.913-1.0239 1.8935-1.9535 3.3377-2.8418 4.4149-1.3304 1.6133-2.6799 2.5194-4.1257 2.7702l-1.6956 0.29419-1.1099-1.3152c-11.52-13.651-21.852-24.16-30.71-31.234-3.7721-3.0125-6.5992-4.853-8.5782-5.9859 0.065948 0.95654 0.20728 2.1716 0.46732 3.7114 0.6442 3.8136 1.7759 8.3524 2.9741 13.158 1.5418 6.1832 3.1361 12.577 3.7237 17.726 0.34195 2.9968 0.31857 5.3605-0.071472 7.2263-0.72864 3.4854-2.6823 4.8797-4.1909 5.4348-0.371 0.13683-0.77063 0.20624-1.1878 0.20624-1.0428 0-2.6188 0-19.484-8.6356-7.2703-3.7225-14.319-7.4893-15.665-8.2103-8.3438-2.761-18.491-5.0764-31.007-7.0759-10.747-1.7168-20.991-2.8401-29.222-3.7426-0.92175-0.10106-1.8138-0.19888-2.6734-0.29395l-0.058838-0.0064697-0.058472-0.0088196c-8.7912-1.3246-17.243-1.9962-25.12-1.9961-4.4694 4.5776e-5 -7.92 0.22256-10.346 0.46346 3.0202 1.402 6.8744 3.1132 11.288 5.0725 13.083 5.8085 30.996 13.762 45.853 21.977 8.5684 4.4531 15.15 11.494 19.164 16.621 3.6723 4.6899 7.4863 10.84 7.6706 13.52 0.083527 1.2149-0.40271 2.2896-1.3342 2.9485-1.3929 0.98524-2.3083 1.5842-2.9915 1.9427-0.3244 0.36979-0.74155 0.82565-1.2585 1.3754-1.1955 1.2711-3.1248 1.7663-6.8811 1.7663-6.1177 0-16.733-1.4008-26.998-2.7555-7.4787-0.98698-15.159-2.0005-20.523-2.38 0.7283 0.39876 1.5599 0.84113 2.5102 1.3315 4.2349 2.1851 9.6136 4.7124 14.815 7.1566 5.8386 2.7435 11.353 5.3348 15.521 7.5432 2.3255 1.2324 4.0252 2.2391 5.1962 3.0778 0.79718 0.57095 1.3678 1.0729 1.796 1.5796 1.3882 1.6431 1.0279 3.1858 0.80841 3.7734-0.85794 2.2949-3.4938 2.7648-4.36 2.9192-1.2884 0.22964-2.9864 0.34129-5.1912 0.34129-5.2916 0-12.833-0.65076-20.126-1.2801-3.5366-0.30521-6.974-0.60187-10.078-0.8212 3.9969 1.3797 8.5616 2.9066 13.006 4.3932 5.6518 1.8906 10.99 3.6764 15.038 5.1132 2.2076 0.78365 3.8367 1.3949 4.9803 1.8686 0.69421 0.28753 1.2235 0.53046 1.6181 0.74271 0.31683 0.17041 0.56717 0.33064 0.78778 0.50423 1.1011 0.86671 1.2655 1.9469 1.2655 2.5137 0 1.8233 0.1134 3.7151 0.31964 5.3294 0.35422 2.7906-2.3169 4.4628-3.1947 5.0123-1.3001 0.81394-3.1318 1.6936-5.5998 2.6892-4.3618 1.7598-10.156 3.6576-15.76 5.4931-3.7774 1.2372-7.3803 2.4173-10.491 3.5301 4.5541-0.087547 10.099-0.2998 15.503-0.50668 6.8382-0.2617 13.297-0.50894 17.655-0.50894 1.6468 0 2.8922 0.03553 3.8074 0.10859 1.1083 0.08847 2.9633 0.23659 3.8677 1.8853 2.1079 3.8451 4.5412 7.3882 7.4392 10.832 0.8027 0.95429 1.506 2.6617 0.2984 5.3767-0.51102 1.1489-1.3683 2.5199-2.6208 4.1916-2.1499 2.8694-5.2568 6.3476-8.2612 9.7112-2.4279 2.7182-4.9386 5.5289-6.8252 7.8903-0.94724 1.1856-1.6904 2.2005-2.2094 3.0175 4.2503-0.09201 12.162-2.3847 19.819-4.6034 8.5214-2.4692 16.57-4.8015 21.523-4.8015 1.8568 0 3.2953 0.32829 4.3978 1.0037 1.1547 0.70741 1.8906 1.8315 2.0722 3.1651 0.51938 3.8133-3.6442 8.4917-11.048 16.433-2.291 2.4572-4.66 4.998-6.4262 7.1509-0.9346 1.1393-1.5512 1.9919-1.958 2.6179 5.0927-0.27948 15.777-3.4618 25.253-6.2844 10.879-3.2405 21.155-6.3012 26.396-6.3012 1.1109 0 2.0277 0.13036 2.8029 0.39865 1.3105 0.45352 3.0386 1.5639 3.8285 4.2784 0.41592 1.4292 0.5343 3.1991 0.36188 5.4105-0.28482 3.6518-1.3387 8.1675-2.3579 12.535-0.83029 3.5575-1.6888 7.2362-2.0618 10.188-0.40897 3.2372-0.075073 4.3938 0.070343 4.7213 0.019104 7.4768e-4 0.04071 0.0012207 0.064941 0.0012207 0.84201 0 3.0736-0.4673 8.5594-3.5968 4.1098-2.3446 8.9706-5.5553 13.671-8.6603 12.321-8.1384 20.162-13.08 25.157-13.08 0.37183 0 0.73399 0.027298 1.0766 0.081177 5.3221 0.83717 7.5248 6.4435 8.2486 8.2858 1.4734 3.7499 2.448 8.4921 3.3905 13.078 0.91924 4.4728 1.8698 9.0979 3.2189 12.396 1.6223 3.9664 3.0729 4.2448 3.6411 4.2872 0.14374-0.037262 0.728-0.23373 1.9454-1.1694 1.0725-0.82416 2.3898-2.037 3.9155-3.6048 2.9899-3.0724 6.4792-7.1905 9.8537-11.173 9.7043-11.453 15.422-17.933 20.081-17.933 1.8618 0 3.2465 1.4098 4.3554 2.7889 0.90265 1.1226 1.9501 2.6653 3.2022 4.7163 2.0047 3.2839 4.5064 7.8404 7.4357 13.543 1.7901 3.485 3.5275 6.9859 5.0191 10.042 0.38741-3.0062 0.86852-6.3878 1.4399-9.7654 1.0121-5.9822 2.1108-10.809 3.2655-14.346 1.2511-3.8327 3.1615-8.2858 6.8595-8.7057 0.26794-0.030472 0.55112-0.045883 0.84158-0.045883 4.9724 0 13.835 4.5308 27.84 11.993 5.1476 2.7426 10.47 5.5786 14.861 7.6404 5.9288 2.7839 8.165 3.1995 8.9703 3.1995 0.067596 0 0.10535-0.0038147 0.11664-0.0051727 0.46698-0.1002 0.5535-0.24728 0.6109-0.34488 0.19806-0.33659 0.5936-1.4728-0.010254-4.7455-0.49075-2.6598-1.4801-5.8685-2.4369-8.9716-1.2081-3.9182-2.4573-7.9698-2.8352-11.317-0.69513-6.1583 1.9295-8.4616 4.2539-9.3095 0.74994-0.27353 1.5972-0.41217 2.5183-0.41217 6.0461 0 16.627 6.3382 27.829 13.049 4.8458 2.9028 9.8565 5.9044 14.042 8.0744 2.1863 1.1335 3.981 1.9583 5.4869 2.5215 1.5865 0.59337 2.5261 0.7663 3.0328 0.80753 0.0096741-0.34276-0.01712-0.88739-0.15976-1.7036-0.22675-1.2975-0.69217-2.9763-1.3835-4.9899-1.3594-3.96-3.4297-8.7654-5.4318-13.413-2.2499-5.2223-4.3751-10.155-5.6977-14.249-1.377-4.2628-2.3751-8.9256 0.66388-11.189 1.132-0.84294 2.6501-1.2527 4.6411-1.2527 5.3276 0 14.27 2.9469 23.737 6.0669 4.1717 1.3748 8.4855 2.7965 12.149 3.8273 3.7392 1.0522 6.479 1.6003 8.1485 1.6303-0.34045-0.88606-1.1486-2.4982-3.063-5.2516-2.2514-3.2379-5.3201-7.0568-8.2878-10.75-9.3988-11.696-13.805-17.495-11.278-21.463 2.1935-3.4447 9.8758-5.3901 28.203-9.3257 5.7823-1.2417 11.761-2.5257 16.45-3.7903 2.4565-0.6627 4.3584-1.2628 5.8143-1.8345 0.59753-0.23467 1.0566-0.44094 1.4067-0.61494-0.21548-0.15176-0.4827-0.32567-0.81308-0.52094-1.0655-0.62982-2.5399-1.3312-4.382-2.0846-3.6249-1.4826-8.2991-3.0191-12.819-4.5049-5.1501-1.6929-10.476-3.4434-14.479-5.186-2.2962-0.99965-4.0196-1.9349-5.2685-2.8592-1.9842-1.4686-2.9903-3.1191-2.9903-4.9056 0-1.2825 0.47876-3.3635 3.9518-9.8501 1.9828-3.7032 4.6876-8.3708 8.0391-13.873 2.5875-4.2479 5.544-8.9548 8.1115-12.914 0.67093-1.0345 1.2901-1.9791 1.8339-2.798-1.4401-0.29414-3.4792-0.50015-6.3667-0.50002-4.415 1.8311e-4 -9.6689 0.47089-14.75 0.92607-5.1556 0.46188-10.025 0.89812-14.22 0.89812-5.1452 0-11.249-0.59312-12.793-5.2184-4.1358-12.394 3.0642-22.608 6.9322-28.095 0.19571-0.27762 0.41034-0.58212 0.62354-0.88882-2.2835 0.017288-5.3602 0.79639-9.4015 2.3804-3.8443 1.5068-8.1053 3.5651-12.226 5.5556-8.6271 4.1674-16.776 8.1037-22.818 8.1037-1.5925 0-3.0233-0.276-4.2529-0.82028-2.8015-1.2402-4.6068-4.1808-5.5189-8.9897-0.62222-3.2804-0.83347-7.4977-0.6279-12.535 0.20676-5.0639 0.82016-10.264 1.4236-14.101-7.6258 2.7617-22.093 8.1174-30.539 11.257l-2.562 0.95222-1.1861-2.4625c-0.041687-0.086594-4.2156-8.7568-8.2331-17.452-2.3668-5.1224-4.2197-9.257-5.5071-12.289-0.61075-1.4383-1.0893-2.615-1.4507-3.5676-1.2536 0.76787-3.0479 2.4041-5.3947 5.8296-2.8795 4.2031-5.4626 9.44-7.3486 13.264-0.78183 1.585-1.457 2.9539-2.0069 3.952-0.66664 1.2099-1.6741 3.0383-3.7399 3.0383-1.7569 0-2.9618-0.90123-7.556-6.8675-2.6405-3.4291-5.9254-7.9522-9.1022-12.326-2.6197-3.6073-5.0942-7.0145-7.1578-9.7469-0.96852-1.2823-1.7114-2.2344-2.2797-2.9411m-0.23997-4.5292c1.8554 0 24.069 33.411 26.336 33.411 1.5147 0 10.924-26.733 20.343-26.736 0.082214-1.5259e-5 0.1635 0.0020142 0.24571 0.0060883-0.83926 1.1145 15.796 35.653 15.796 35.653s32.495-12.078 35.536-13.02c-1.1254 3.6683-5.8776 33.977 1.9857 37.458 0.87573 0.38768 1.8981 0.56352 3.0385 0.56352 10.907 0 32.807-16.039 44.522-16.04 1.5188-9.1553e-5 2.8656 0.26941 3.9958 0.87842 2.0259 2.0755-14.114 14.178-8.7823 30.156 0.80988 2.4268 4.6712 3.168 9.947 3.168 8.2772 0 20.04-1.8238 28.97-1.8242 4.8101-2.1362e-4 8.7958 0.52861 10.976 2.1568-0.58575 0.23869-23.546 35.81-23.546 40.778 0 6.7994 43.701 13.975 41.403 20.821-1.8994 5.6579-49.441 10.839-52.994 16.417-3.1058 4.8778 27.427 33.314 22.883 38.113-0.48798 0.51544-1.3997 0.74173-2.6419 0.74173-8.8712 0-34.653-11.526-44.176-11.526-1.2602 0-2.2355 0.2018-2.8494 0.65889-5.3755 4.0029 18.745 42.195 12.029 45.818-0.41714 0.22502-0.94101 0.33081-1.5571 0.33081-9.3812 0-40.43-24.463-50.645-24.463-0.5625 0-1.0614 0.074112-1.4904 0.23061-8.9426 3.2621 10.762 32.537 0 34.808-0.21622 0.045639-0.45996 0.067886-0.72696 0.067886-8.5841 0-42.626-22.833-51.672-22.833-0.17751 0-0.345 0.0087585-0.50288 0.026688-6.5667 0.74565-10.086 40.584-10.086 40.584s-18.07-38.838-21.83-38.838c-7.0116 0-28.672 33.884-35.761 33.884-0.041351 0-0.081894-0.0011292-0.12225-0.0034485-11.533-0.66106-7.8283-36.346-18.878-38.084-0.1911-0.03006-0.39525-0.044785-0.61049-0.044785-8.9486 0-38.277 25.337-47.388 25.337-0.32162 0-0.61765-0.031509-0.88712-0.096878-8.3218-2.0183 7.9303-34.458 0-37.202-0.46072-0.15942-1.076-0.23366-1.8218-0.23366-9.7364 0-42.057 12.605-52.328 12.605-0.97855 0-1.7552-0.11415-2.2949-0.36462-6.0521-2.8087 24.327-26.057 18.767-29.464-0.63654-0.38994-1.6036-0.56174-2.8305-0.56174-9.0804 0-32.412 9.4078-41.601 9.4078-1.4585 0-2.5594-0.23672-3.1917-0.78581-3.6585-3.1763 23.875-26.786 20.773-30.473-2.9648-3.5235-5.5213-7.2122-7.774-11.321-0.17404-0.31721-2.08-0.43605-5.0445-0.43605-8.844 0-27.12 1.0572-36.995 1.0572-3.8905 0-6.4743-0.16388-6.6671-0.62119-1.6983-4.0203 43.19-13.911 42.573-18.767-0.21329-1.6695-0.34351-3.6807-0.34351-5.7072 0-1.3941-47.284-15.652-47.132-17.345 0.074615-0.83811 2.164-1.1475 5.4525-1.1475 9.2709-1.297e-4 28.081 2.4585 38.188 2.4585 3.8106 0 6.3815-0.34901 6.7411-1.311 1.3015-3.4837-47.789-22.136-45.48-25.81 0.3364-0.53551 1.7502-0.75772 3.9333-0.75775 10.653-9.1553e-5 39.636 5.2914 51.231 5.2914 2.4696 0 4.1485-0.23969 4.6959-0.8217 0.9379-0.99751 1.4076-1.5398 1.6247-1.8169 0.006012 0.0016327 0.013153 0.0025024 0.021637 0.0025024 0.17175 0 0.87592-0.35518 3.0564-1.8976 1.068-0.75548-9.2083-19.711-25.185-27.995-27.811-15.385-66.498-29.871-63.964-31.128 1.805-0.89545 8.3978-2.0295 18.586-2.0296 6.9673-9.1553e-5 15.615 0.53014 25.567 2.0296 16.006 1.7699 43.281 4.5009 63.763 11.328 0 0 30.927 16.612 33.96 16.612 0.061737 0 0.11157-0.0068207 0.14969-0.020859 8.7314-3.2132-8.1489-41.154-4.3439-49.056-0.07724 0.36171 12.891 2.9625 44.06 39.899 6.1279-1.0631 15.062-35.71 21.998-36.491 0.10742-0.012115 0.21945-0.018066 0.3343-0.018097 6.2856-0.0015411 23.497 17.752 30.397 17.752 0.0728 0 0.14391-0.0019531 0.21439-0.0059357 4.3102-0.24382 4.9895-33.32 10.046-33.411 9.0027e-4 -1.5259e-5 0.0018616-1.5259e-5 0.0027771-1.5259e-5zm46.98 6.6539c0.027069 0 0.060791 0.012573 0.10115 0.038086-0.052475-0.004303-0.1044-0.0077362-0.15688-0.010345 0.013794-0.018311 0.032349-0.02774 0.055725-0.02774zm51.445 22.296c0.03363 0 0.052063 0.098785 0.052063 0.30579-0.022278 0-0.097229 0.019897-0.22067 0.058136 0.072815-0.23737 0.13058-0.36392 0.16861-0.36392zm94.489 56.879c0.0041199 0 0.0062561 0.0032654 0.0062561 0.0097961-0.0037537-0.0028229-0.0076904-0.0057526-0.011444-0.0085602 0.0019836-8.0872e-4 0.0037231-0.001236 0.005188-0.001236zm-351.42 8.3438c0.020874 0-0.0078735 0.064407-0.159 0.25726-0.097778-0.026733 0.11948-0.25726 0.159-0.25726z" fill="#1d1d1d"/>
 </g>
</svg>
