<svg width="280mm" height="214mm" version="1.1" viewBox="0 0 280 214" xmlns="http://www.w3.org/2000/svg">
 <defs>
  <filter id="filter1876" color-interpolation-filters="sRGB">
   <feFlood flood-color="rgb(0,0,0)" flood-opacity=".49804" result="flood"/>
   <feComposite in="flood" in2="SourceGraphic" operator="in" result="composite1"/>
   <feGaussianBlur in="composite1" result="blur" stdDeviation="3.5"/>
   <feOffset dx="7" dy="7" result="offset"/>
   <feComposite in="SourceGraphic" in2="offset" result="composite2"/>
  </filter>
 </defs>
 <g transform="translate(25.37 -99.937)">
  <path d="m-20.169 134.83c5.4859-1.4598 14.157-6.7712 30.491-6.3145 24.225 0.6774 54.113 19.433 57.318 17.312 3.9039-0.3779 7.9163-13.683 5.0207-26.577 0.59778 2.079 15.082 20.754 26.357 17.127 8.5551-2.7522 12.282-7.7142 12.179-18.607 0 0 8.8289 18.988 17.644 19.881 9.3984 0.9522 22.603 2.0378 22.68-16.992 0 0 8.0131 17.453 16.204 19.218 10.801 2.3264 18.276 4.9897 29.905-14.297 0 0-7.1073 23.324 0.12359 30.444 6.8091 6.7052 17.089 1.4989 28.667-0.32476-9.5725 6.7246-14.985 14.534-14.306 22.381 0.73107 8.4498 17.995 16.791 17.995 16.791s-21.092 6.0576-20.983 14.507c0.10907 8.4098 19.463 21.354 19.463 21.354s-12.75 8.206-18.234 18.606c-4.5208 8.5738 11.792 27.243 11.792 27.243s-17.928-4.5506-25.686-0.9154c-7.2206 3.3836-14.644 18.917-14.644 18.917s-13.035-14.016-21.517-13.634c-8.2872 0.37313-19.74 15.156-19.74 15.156s-11.8-18.658-23.748-20.197c-12.273-1.5814-24.193 15.852-24.193 15.852s-9.4629-17.134-17.901-18.163c-9.6232-1.1732-24.794 15.202-24.794 15.202s-1.4076-17.308-7.5499-22.082c-7.3806-5.7355-27.952-2.2385-27.952-2.2385s11.495-14.177 9.3425-21.776c-2.5563-9.0266-23.011-16.206-23.011-16.206s17.797-10.135 17.761-18.742c-0.03995-9.6344-20.055-20.814-20.055-20.814 5.4199 0.86688 17.855-2.6232 18.986-9.6284 1.2729-7.885-16.875-17.012-16.875-17.012s33.97 5.6165 34.276-3.6012c0.37692-11.372-35.42-27.252-55.02-21.87z" fill="#fff" filter="url(#filter1876)" stroke="#000" stroke-width="2.0077"/>
 </g>
</svg>
