<svg width="237.86" height="192.81" version="1.1" viewBox="0 0 237.86 192.81" xmlns="http://www.w3.org/2000/svg">
 <defs>
  <filter id="filter1739" color-interpolation-filters="sRGB">
   <feFlood flood-color="rgb(0,0,0)" flood-opacity=".49804" result="flood"/>
   <feComposite in="flood" in2="SourceGraphic" operator="in" result="composite1"/>
   <feGaussianBlur in="composite1" result="blur" stdDeviation="5"/>
   <feOffset dx="4" dy="6" result="offset"/>
   <feComposite in="SourceGraphic" in2="offset" result="composite2"/>
  </filter>
 </defs>
 <path transform="matrix(.96012 0 0 1 .26032 0)" d="m29.492 33.143c46.175-35.488 127.34-36.972 175.73-4.4708 18.891 12.688 39.673 35.915 23.33 63.485-16.04 27.058-57.281 44.639-100.38 48.106-2.3521 0.18919 2.4893 11.91 8.9821 22.518 6.4785 10.585 14.606 20.057 14.606 20.057-7.6006-2.7727-22.665-12.166-36.094-22.988-11.574-9.3271-15.802-19.368-18.438-19.587-35.703-2.9744-68.798-16.613-85.606-43.636-12.713-20.44 0.28605-49.966 17.876-63.485z" fill="#fff" filter="url(#filter1739)" stroke="#000" stroke-width="3.1211"/>
</svg>
